<svg xmlns="http://www.w3.org/2000/svg" width="18" height="16" fill="none"><path fill="#F9FAFB" d="m11.207 2.043-.707.707.707-.707Zm-1.414 0-.707-.707.707.707Zm6.664 5.25L15.75 8l.707-.707Zm0 1.414L15.75 8l.707.707Zm-1.414 0L15.75 8l-.707.707Zm-5.25-5.25.707-.707-.707.707Zm6.664 5.25L15.75 8l.707.707Zm0-1.414L15.75 8l.707-.707Zm-5.25 6.664-.707-.707.707.707Zm-1.414 0 .707-.707-.707.707Zm0-1.414.707.707-.707-.707Zm5.25-5.25L15.75 8l-.707-.707ZM2.25 7V6v1Zm-1 1h-1 1Zm14.5-1v1-1Zm0 2v1-1ZM2.25 9V8v1Zm9.664-7.664a2 2 0 0 0-2.828 0L10.5 2.75l1.414-1.414Zm5.25 5.25-5.25-5.25L10.5 2.75 15.75 8l1.414-1.414Zm0 2.828a2 2 0 0 0 0-2.828L15.75 8l1.414 1.414Zm-2.828 0a2 2 0 0 0 2.828 0L15.75 8l-1.414 1.414Zm-5.25-5.25 5.25 5.25L15.75 8 10.5 2.75 9.086 4.164Zm0-2.828a2 2 0 0 0 0 2.828L10.5 2.75 9.086 1.336Zm8.078 8.078a2 2 0 0 0 0-2.828L15.75 8l1.414 1.414Zm-5.25 5.25 5.25-5.25L15.75 8l-5.25 5.25 1.414 1.414Zm-2.828 0a2 2 0 0 0 2.828 0L10.5 13.25l-1.414 1.414Zm0-2.828a2 2 0 0 0 0 2.828L10.5 13.25l-1.414-1.414Zm5.25-5.25-5.25 5.25L10.5 13.25 15.75 8l-1.414-1.414Zm2.828 0a2 2 0 0 0-2.828 0L15.75 8l1.414-1.414ZM2.25 6a2 2 0 0 0-2 2h2V6Zm13.5 0H2.25v2h13.5V6Zm2 2a2 2 0 0 0-2-2v2h2Zm-2 2a2 2 0 0 0 2-2h-2v2Zm-13.5 0h13.5V8H2.25v2Zm-2-2a2 2 0 0 0 2 2V8h-2Z"/></svg>