<svg xmlns="http://www.w3.org/2000/svg" width="95" height="38" fill="none"><path fill="#FB8E0B" fill-rule="evenodd" d="M24.061 29.444h6.167L19.231.467H14.18L3.219 29.444h6.167l2.341-6.427h9.956l2.378 6.427Zm-4.347-11.85h-6.018l3.01-8.211 3.008 8.21Zm31.31-2.564a11.494 11.494 0 0 0-2.266-3.381 11.492 11.492 0 0 0-3.38-2.266c-1.3-.558-2.675-.818-4.124-.818-1.412 0-2.824.26-4.124.818a11.492 11.492 0 0 0-3.38 2.266c-.967.966-1.71 2.118-2.267 3.38-.52 1.301-.817 2.675-.817 4.124v15.79l5.572 1.857v-8.322c.298.149.595.297.892.409 1.3.557 2.712.854 4.124.854a10.51 10.51 0 0 0 4.123-.854 10.217 10.217 0 0 0 3.381-2.266 10.865 10.865 0 0 0 2.267-3.344c.557-1.3.817-2.712.817-4.124 0-1.448-.26-2.823-.817-4.123Zm-9.77 9.139c-2.75 0-5.016-2.266-5.016-5.016 0-2.749 2.267-5.015 5.016-5.015s5.015 2.266 5.015 5.015c0 2.75-2.266 5.016-5.015 5.016ZM66.6 28.7c-1.337.595-2.749.892-4.198.892-2.823 0-5.424-1.115-7.43-3.084a10.397 10.397 0 0 1-3.047-7.393c0-2.786 1.078-5.424 3.047-7.393 2.006-1.969 4.607-3.083 7.43-3.083 2.786 0 5.424 1.114 7.393 3.083a10.397 10.397 0 0 1 3.046 7.393v2.712H58.095a5.107 5.107 0 0 0 4.31 2.378 4.948 4.948 0 0 0 3.677-1.598l3.938 3.716a10.478 10.478 0 0 1-3.418 2.377Zm-4.198-14.674c-1.82 0-3.418.966-4.31 2.414h8.62c-.93-1.448-2.527-2.414-4.31-2.414Z" clip-rule="evenodd"/><path fill="#FD6003" d="M85.483 29.444h6.613l-7.542-10.402 7.468-10.29h-6.725l-4.123 5.758-4.05-5.759h-6.836l7.542 10.254-7.504 10.44H76.9l4.31-5.722 4.272 5.721Z"/></svg>