<svg xmlns="http://www.w3.org/2000/svg" width="60" height="60" fill="none"><g fill="#FB8E0B" clip-path="url(#a)"><circle cx="30" cy="30" r="30" opacity=".2"/><path fill-rule="evenodd" d="M36.986 28.685 39 26a14.946 14.946 0 0 0-9-3 14.946 14.946 0 0 0-9 3l9 12 2.625-3.499v-2.126c0-2.07 1.68-3.75 3.75-3.75.21 0 .409.03.611.06Zm1.264 3.69a1.876 1.876 0 0 0-3.75 0V33.5a.752.752 0 0 0-.75.75v3c0 .413.337.75.75.75h3.75c.413 0 .75-.337.75-.75v-3a.752.752 0 0 0-.75-.75v-1.125Zm-3 1.125v-1.125c0-.622.502-1.125 1.125-1.125s1.125.503 1.125 1.125V33.5h-2.25Z" clip-rule="evenodd"/></g><defs><clipPath id="a"><path fill="#fff" d="M0 0h60v60H0z"/></clipPath></defs></svg>