<svg xmlns="http://www.w3.org/2000/svg" width="78" height="13" fill="none"><g clip-path="url(#a)"><path fill="#FFC947" d="m12.374 4.233-3.754-.34L7.137.42a.691.691 0 0 0-1.271 0L4.382 3.893l-3.754.34a.692.692 0 0 0-.392 1.21L3.073 7.93l-.837 3.685a.691.691 0 0 0 1.029.747L6.5 10.427l3.236 1.935a.69.69 0 0 0 1.029-.747L9.929 7.93l2.838-2.487a.692.692 0 0 0-.393-1.21ZM28.376 4.233l-3.754-.34L23.14.42a.691.691 0 0 0-1.271 0l-1.484 3.473-3.754.34a.692.692 0 0 0-.392 1.21l2.837 2.487-.837 3.685a.691.691 0 0 0 1.029.747l3.236-1.935 3.236 1.935a.69.69 0 0 0 1.029-.747L25.93 7.93l2.837-2.487a.692.692 0 0 0-.392-1.21ZM44.378 4.233l-3.754-.34L39.141.42a.691.691 0 0 0-1.271 0l-1.484 3.473-3.754.34a.692.692 0 0 0-.392 1.21l2.837 2.487-.837 3.685a.691.691 0 0 0 1.029.747l3.236-1.935 3.236 1.935a.69.69 0 0 0 1.029-.747l-.837-3.685 2.837-2.487a.692.692 0 0 0-.392-1.21ZM60.38 4.233l-3.754-.34L55.143.42a.691.691 0 0 0-1.272 0l-1.483 3.473-3.754.34a.692.692 0 0 0-.392 1.21l2.837 2.487-.837 3.685a.691.691 0 0 0 1.028.747l3.237-1.935 3.236 1.935a.69.69 0 0 0 1.029-.747l-.837-3.685 2.837-2.487a.692.692 0 0 0-.392-1.21Z"/><path fill="#5B7486" d="m76.382 4.233-3.754-.34L71.145.42a.691.691 0 0 0-1.272 0L68.39 3.893l-3.754.34a.692.692 0 0 0-.393 1.21l2.838 2.487-.837 3.685a.691.691 0 0 0 1.028.747l3.237-1.935 3.236 1.935a.69.69 0 0 0 1.029-.747l-.837-3.685 2.837-2.487a.692.692 0 0 0-.392-1.21Z" opacity=".3"/></g><defs><clipPath id="a"><path fill="#fff" d="M0 0h77.01v12.46H0z"/></clipPath></defs></svg>