<svg xmlns="http://www.w3.org/2000/svg" width="60" height="60" fill="none"><g fill="#4DA44E" clip-path="url(#a)"><circle cx="30" cy="30" r="30" opacity=".2"/><path fill-rule="evenodd" d="M31.467 22.896c.569 0 .948-.379.948-.948s-.38-.948-.948-.948h-3.792c-.57 0-.948.38-.948.948 0 .569.379.948.948.948h3.792Zm4.93 3.034a.916.916 0 0 0 0-1.327.917.917 0 0 0-1.327 0l-.853.853c-2.75-2.18-6.542-2.18-9.292 0l-.853-.853a.917.917 0 0 0-1.328 0 .917.917 0 0 0 0 1.327l.854.853c-2.56 3.319-1.991 8.06 1.327 10.62 3.319 2.56 8.059 1.99 10.619-1.328 2.18-2.75 2.18-6.542 0-9.292l.853-.853Zm-6.826 7.395a1.902 1.902 0 0 1-1.896-1.896c0-.663.379-1.327.948-1.612v-2.18c0-.57.379-.948.948-.948s.948.379.948.948v2.18c.948.474 1.233 1.612.664 2.56-.38.57-.948.948-1.612.948Z" clip-rule="evenodd"/></g><defs><clipPath id="a"><path fill="#fff" d="M0 0h60v60H0z"/></clipPath></defs></svg>